<svg width="256" height="36" viewBox="0 0 256 36" fill="none" xmlns="http://www.w3.org/2000/svg">
<path d="M19.2 35L13.3012 25.8048L7.34458 35H0.346988L9.6 21.8723L0.751807 9.61205H7.86506L13.3012 17.9398L18.6795 9.61205H25.8506L17.0024 21.8145L26.3711 35H19.2ZM35.8671 35.4627C33.3996 35.4627 31.4719 34.8072 30.0839 33.4964C28.7345 32.147 28.0598 30.2578 28.0598 27.8289C28.0598 25.2072 28.908 23.2217 30.6044 21.8723C32.3393 20.4843 34.8261 19.7711 38.0646 19.7325L43.5586 19.6169V18.3446C43.5586 16.6867 43.2695 15.453 42.6912 14.6434C42.1128 13.8337 41.1683 13.4289 39.8574 13.4289C38.6237 13.4289 37.7177 13.7181 37.1393 14.2964C36.5996 14.8361 36.2526 15.7422 36.0984 17.0145L29.2165 16.6675C29.6405 14.2 30.7586 12.3301 32.5707 11.0578C34.4213 9.78554 36.9466 9.1494 40.1466 9.1494C43.3466 9.1494 45.814 9.93976 47.549 11.5205C49.2839 13.1012 50.1514 15.3566 50.1514 18.2867V27.4819C50.1514 28.9084 50.3056 29.8916 50.614 30.4313C50.9225 30.9711 51.4622 31.241 52.2333 31.241C52.7345 31.241 53.2165 31.2024 53.6791 31.1253V34.653C53.2936 34.7301 52.9466 34.8265 52.6381 34.9422C52.3297 35.0193 52.002 35.0771 51.655 35.1157C51.3466 35.1542 51.0189 35.1928 50.6719 35.2313C50.3249 35.2699 49.9201 35.2892 49.4574 35.2892C47.7996 35.2892 46.5659 34.8843 45.7562 34.0747C44.9851 33.2651 44.5225 32.0699 44.3683 30.4892H44.2526C42.3634 33.8048 39.5683 35.4627 35.8671 35.4627ZM43.5586 23.2602L40.1466 23.3181C38.6044 23.3952 37.5056 23.5687 36.8502 23.8386C36.2333 24.1084 35.7514 24.5325 35.4044 25.1108C35.096 25.6506 34.9418 26.3831 34.9418 27.3084C34.9418 28.5036 35.2116 29.4096 35.7514 30.0265C36.3297 30.6048 37.0815 30.894 38.0068 30.894C39.0478 30.894 39.9924 30.6048 40.8406 30.0265C41.6887 29.4482 42.3442 28.6771 42.8068 27.7133C43.308 26.7108 43.5586 25.6506 43.5586 24.5325V23.2602ZM80.698 22.2193C80.698 26.4217 79.8498 29.6795 78.1534 31.9928C76.4956 34.306 74.1052 35.4627 70.9823 35.4627C69.1703 35.4627 67.6088 35.0771 66.298 34.306C64.9871 33.5349 63.9847 32.3976 63.2907 30.894H63.2329C63.2329 31.4337 63.1944 32.1855 63.1172 33.1494C63.0401 34.1133 62.963 34.7301 62.8859 35H56.5245C56.6401 33.5349 56.698 31.6072 56.698 29.2169V0.243372H63.2907V9.9012L63.1751 14.0651H63.2907C64.7944 10.8265 67.4931 9.18795 71.3871 9.1494C74.3944 9.1494 76.6883 10.2867 78.2691 12.5614C79.8883 14.8361 80.698 18.0554 80.698 22.2193ZM73.816 22.2193C73.816 19.3277 73.3919 17.188 72.5438 15.8C71.6956 14.412 70.404 13.7181 68.6691 13.7181C66.8956 13.7181 65.5269 14.4699 64.563 15.9735C63.6377 17.4771 63.1751 19.6361 63.1751 22.4506C63.1751 25.1494 63.6377 27.2506 64.563 28.7542C65.4883 30.2193 66.8377 30.9518 68.6112 30.9518C72.0811 30.9518 73.816 28.041 73.816 22.2193ZM91.7889 35.4627C89.3215 35.4627 87.3937 34.8072 86.0058 33.4964C84.6564 32.147 83.9817 30.2578 83.9817 27.8289C83.9817 25.2072 84.8299 23.2217 86.5263 21.8723C88.2612 20.4843 90.748 19.7711 93.9865 19.7325L99.4805 19.6169V18.3446C99.4805 16.6867 99.1913 15.453 98.613 14.6434C98.0347 13.8337 97.0901 13.4289 95.7793 13.4289C94.5456 13.4289 93.6395 13.7181 93.0612 14.2964C92.5215 14.8361 92.1745 15.7422 92.0203 17.0145L85.1383 16.6675C85.5624 14.2 86.6805 12.3301 88.4925 11.0578C90.3431 9.78554 92.8684 9.1494 96.0684 9.1494C99.2684 9.1494 101.736 9.93976 103.471 11.5205C105.206 13.1012 106.073 15.3566 106.073 18.2867V27.4819C106.073 28.9084 106.227 29.8916 106.536 30.4313C106.844 30.9711 107.384 31.241 108.155 31.241C108.656 31.241 109.138 31.2024 109.601 31.1253V34.653C109.215 34.7301 108.868 34.8265 108.56 34.9422C108.252 35.0193 107.924 35.0771 107.577 35.1157C107.268 35.1542 106.941 35.1928 106.594 35.2313C106.247 35.2699 105.842 35.2892 105.379 35.2892C103.721 35.2892 102.488 34.8843 101.678 34.0747C100.907 33.2651 100.444 32.0699 100.29 30.4892H100.174C98.2853 33.8048 95.4901 35.4627 91.7889 35.4627ZM99.4805 23.2602L96.0684 23.3181C94.5263 23.3952 93.4275 23.5687 92.7721 23.8386C92.1552 24.1084 91.6733 24.5325 91.3263 25.1108C91.0178 25.6506 90.8636 26.3831 90.8636 27.3084C90.8636 28.5036 91.1335 29.4096 91.6733 30.0265C92.2516 30.6048 93.0034 30.894 93.9287 30.894C94.9697 30.894 95.9142 30.6048 96.7624 30.0265C97.6106 29.4482 98.266 28.6771 98.7287 27.7133C99.2299 26.7108 99.4805 25.6506 99.4805 24.5325V23.2602ZM112.62 35V15.5687C112.62 14.1807 112.601 13.0241 112.562 12.0988C112.523 11.1735 112.485 10.3446 112.446 9.61205H118.692C118.731 9.88193 118.789 10.7494 118.866 12.2145C118.981 13.641 119.039 14.5855 119.039 15.0482H119.097C119.752 13.2747 120.331 12.0217 120.832 11.2892C121.333 10.5566 121.911 10.0169 122.567 9.66988C123.261 9.32289 124.128 9.1494 125.169 9.1494C126.017 9.1494 126.692 9.26506 127.193 9.49638V14.9904C126.114 14.759 125.189 14.6434 124.417 14.6434C122.76 14.6434 121.468 15.3181 120.543 16.6675C119.656 17.9783 119.213 19.9446 119.213 22.5663V35H112.62ZM131.276 35V0.243372H137.869V35H131.276ZM150.43 35.4627C147.962 35.4627 146.034 34.8072 144.646 33.4964C143.297 32.147 142.622 30.2578 142.622 27.8289C142.622 25.2072 143.471 23.2217 145.167 21.8723C146.902 20.4843 149.389 19.7711 152.627 19.7325L158.121 19.6169V18.3446C158.121 16.6867 157.832 15.453 157.254 14.6434C156.675 13.8337 155.731 13.4289 154.42 13.4289C153.186 13.4289 152.28 13.7181 151.702 14.2964C151.162 14.8361 150.815 15.7422 150.661 17.0145L143.779 16.6675C144.203 14.2 145.321 12.3301 147.133 11.0578C148.984 9.78554 151.509 9.1494 154.709 9.1494C157.909 9.1494 160.377 9.93976 162.111 11.5205C163.846 13.1012 164.714 15.3566 164.714 18.2867V27.4819C164.714 28.9084 164.868 29.8916 165.177 30.4313C165.485 30.9711 166.025 31.241 166.796 31.241C167.297 31.241 167.779 31.2024 168.242 31.1253V34.653C167.856 34.7301 167.509 34.8265 167.201 34.9422C166.892 35.0193 166.564 35.0771 166.218 35.1157C165.909 35.1542 165.581 35.1928 165.234 35.2313C164.887 35.2699 164.483 35.2892 164.02 35.2892C162.362 35.2892 161.128 34.8843 160.319 34.0747C159.548 33.2651 159.085 32.0699 158.931 30.4892H158.815C156.926 33.8048 154.131 35.4627 150.43 35.4627ZM158.121 23.2602L154.709 23.3181C153.167 23.3952 152.068 23.5687 151.413 23.8386C150.796 24.1084 150.314 24.5325 149.967 25.1108C149.658 25.6506 149.504 26.3831 149.504 27.3084C149.504 28.5036 149.774 29.4096 150.314 30.0265C150.892 30.6048 151.644 30.894 152.569 30.894C153.61 30.894 154.555 30.6048 155.403 30.0265C156.251 29.4482 156.907 28.6771 157.369 27.7133C157.871 26.7108 158.121 25.6506 158.121 24.5325V23.2602ZM193.815 35L186.123 22.4506H178.027V35H171.145V1.97831H187.627C191.559 1.97831 194.586 2.82651 196.706 4.52289C198.865 6.21928 199.945 8.64819 199.945 11.8096C199.945 14.1229 199.289 16.1277 197.979 17.8241C196.668 19.4819 194.894 20.5807 192.658 21.1205L201.564 35H193.815ZM193.005 12.0988C193.005 8.93735 190.962 7.35662 186.875 7.35662H178.027V17.0723H187.106C189.034 17.0723 190.499 16.6482 191.501 15.8C192.504 14.9133 193.005 13.6795 193.005 12.0988ZM204.224 35V30.4313C205.072 28.5422 206.287 26.7108 207.867 24.9373C209.448 23.1253 211.453 21.2361 213.882 19.2699C216.195 17.3807 217.814 15.8386 218.74 14.6434C219.665 13.4096 220.128 12.2145 220.128 11.0578C220.128 8.16627 218.682 6.72048 215.79 6.72048C214.402 6.72048 213.323 7.10602 212.552 7.87711C211.819 8.64819 211.337 9.78554 211.106 11.2892L204.513 10.8843C204.899 7.83855 206.036 5.50602 207.925 3.88675C209.853 2.26747 212.455 1.45783 215.732 1.45783C219.279 1.45783 221.997 2.28675 223.887 3.94458C225.814 5.56386 226.778 7.83855 226.778 10.7687C226.778 12.3108 226.47 13.7181 225.853 14.9904C225.275 16.2241 224.504 17.3807 223.54 18.4602C222.576 19.5012 221.516 20.4843 220.359 21.4096C219.202 22.2964 218.065 23.1831 216.947 24.0699C215.867 24.9566 214.884 25.8434 213.997 26.7301C213.111 27.6169 212.436 28.5614 211.973 29.5639H227.299V35H204.224ZM251.252 28.2916V35H244.949V28.2916H229.971V23.3181L243.908 1.97831H251.252V23.3759H255.648V28.2916H251.252ZM244.949 12.5614C244.949 11.7133 244.968 10.8072 245.007 9.84337C245.084 8.84096 245.142 8.20482 245.18 7.93494C244.756 8.82169 244.024 10.094 242.983 11.7518L235.291 23.3759H244.949V12.5614Z" fill="#190E99" fill-opacity="0.88"/>
<path d="M19.2 35L18.3583 35.54L18.6534 36H19.2V35ZM13.3012 25.8048L14.1429 25.2649L13.3053 23.9592L12.4619 25.2611L13.3012 25.8048ZM7.34458 35V36H7.88827L8.18387 35.5437L7.34458 35ZM0.346988 35L-0.470379 34.4239L-1.5813 36H0.346988V35ZM9.6 21.8723L10.4174 22.4484L10.8283 21.8654L10.4109 21.2871L9.6 21.8723ZM0.751807 9.61205V8.61205H-1.20312L-0.0590737 10.1973L0.751807 9.61205ZM7.86506 9.61205L8.70244 9.06542L8.40648 8.61205H7.86506V9.61205ZM13.3012 17.9398L12.4638 18.4864L13.3057 19.776L14.1412 18.4823L13.3012 17.9398ZM18.6795 9.61205V8.61205H18.1349L17.8395 9.06952L18.6795 9.61205ZM25.8506 9.61205L26.6602 10.1991L27.811 8.61205H25.8506V9.61205ZM17.0024 21.8145L16.1928 21.2274L15.7715 21.8085L16.1872 22.3937L17.0024 21.8145ZM26.3711 35V36H28.3083L27.1863 34.4208L26.3711 35ZM20.0417 34.46L14.1429 25.2649L12.4595 26.3448L18.3583 35.54L20.0417 34.46ZM12.4619 25.2611L6.50529 34.4563L8.18387 35.5437L14.1405 26.3485L12.4619 25.2611ZM7.34458 34H0.346988V36H7.34458V34ZM1.16435 35.5761L10.4174 22.4484L8.78263 21.2962L-0.470379 34.4239L1.16435 35.5761ZM10.4109 21.2871L1.56269 9.02684L-0.0590737 10.1973L8.78912 22.4575L10.4109 21.2871ZM0.751807 10.612H7.86506V8.61205H0.751807V10.612ZM7.02768 10.1587L12.4638 18.4864L14.1386 17.3931L8.70244 9.06542L7.02768 10.1587ZM14.1412 18.4823L19.5196 10.1546L17.8395 9.06952L12.4612 17.3972L14.1412 18.4823ZM18.6795 10.612H25.8506V8.61205H18.6795V10.612ZM25.041 9.02502L16.1928 21.2274L17.812 22.4015L26.6602 10.1991L25.041 9.02502ZM16.1872 22.3937L25.5559 35.5792L27.1863 34.4208L17.8176 21.2353L16.1872 22.3937ZM26.3711 34H19.2V36H26.3711V34ZM30.0839 33.4964L29.3768 34.2035L29.3869 34.2136L29.3973 34.2234L30.0839 33.4964ZM30.6044 21.8723L31.2269 22.6549L31.2291 22.6532L30.6044 21.8723ZM38.0646 19.7325L38.0766 20.7325L38.0857 20.7323L38.0646 19.7325ZM43.5586 19.6169L43.5797 20.6166L44.5586 20.596V19.6169H43.5586ZM42.6912 14.6434L43.5049 14.0621L43.5049 14.0621L42.6912 14.6434ZM37.1393 14.2964L36.4322 13.5893L36.4322 13.5893L37.1393 14.2964ZM36.0984 17.0145L36.048 18.0132L36.979 18.0601L37.0911 17.1348L36.0984 17.0145ZM29.2165 16.6675L28.2309 16.4981L28.0399 17.6094L29.1661 17.6662L29.2165 16.6675ZM32.5707 11.0578L32.0041 10.2337L31.996 10.2394L32.5707 11.0578ZM47.549 11.5205L46.8755 12.2597L46.8755 12.2597L47.549 11.5205ZM50.614 30.4313L49.7458 30.9275L49.7458 30.9275L50.614 30.4313ZM53.6791 31.1253H54.6791V29.9448L53.5147 30.1389L53.6791 31.1253ZM53.6791 34.653L53.8752 35.6336L54.6791 35.4728V34.653H53.6791ZM52.6381 34.9422L52.8807 35.9123L52.9359 35.8985L52.9893 35.8785L52.6381 34.9422ZM51.655 35.1157L51.5446 34.1217L51.531 34.1234L51.655 35.1157ZM50.6719 35.2313L50.5614 34.2374L50.5614 34.2374L50.6719 35.2313ZM45.7562 34.0747L45.0321 34.7644L45.0405 34.7732L45.0491 34.7818L45.7562 34.0747ZM44.3683 30.4892L45.3635 30.3921L45.2754 29.4892H44.3683V30.4892ZM44.2526 30.4892V29.4892H43.6714L43.3837 29.9941L44.2526 30.4892ZM43.5586 23.2602H44.5586V22.2431L43.5417 22.2604L43.5586 23.2602ZM40.1466 23.3181L40.1296 22.3182L40.1131 22.3185L40.0966 22.3193L40.1466 23.3181ZM36.8502 23.8386L36.4694 22.9139L36.4594 22.918L36.4494 22.9224L36.8502 23.8386ZM35.4044 25.1108L34.5469 24.5963L34.5414 24.6055L34.5362 24.6147L35.4044 25.1108ZM35.7514 30.0265L34.9988 30.685L35.0207 30.7101L35.0443 30.7336L35.7514 30.0265ZM40.8406 30.0265L41.4039 30.8527L41.4039 30.8527L40.8406 30.0265ZM42.8068 27.7133L41.9124 27.266L41.9088 27.2733L41.9053 27.2805L42.8068 27.7133ZM35.8671 34.4627C33.5776 34.4627 31.9234 33.8582 30.7705 32.7694L29.3973 34.2234C31.0204 35.7563 33.2216 36.4627 35.8671 36.4627V34.4627ZM30.791 32.7893C29.6768 31.6751 29.0598 30.0686 29.0598 27.8289H27.0598C27.0598 30.4471 27.7922 32.6189 29.3768 34.2035L30.791 32.7893ZM29.0598 27.8289C29.0598 25.4412 29.8195 23.7745 31.2269 22.6549L29.9819 21.0897C27.9966 22.6689 27.0598 24.9733 27.0598 27.8289H29.0598ZM31.2291 22.6532C32.726 21.4556 34.9624 20.7695 38.0766 20.7325L38.0527 18.7326C34.6898 18.7726 31.9526 19.5131 29.9797 21.0914L31.2291 22.6532ZM38.0857 20.7323L43.5797 20.6166L43.5376 18.6171L38.0436 18.7328L38.0857 20.7323ZM44.5586 19.6169V18.3446H42.5586V19.6169H44.5586ZM44.5586 18.3446C44.5586 16.604 44.2612 15.121 43.5049 14.0621L41.8774 15.2246C42.2777 15.7851 42.5586 16.7695 42.5586 18.3446H44.5586ZM43.5049 14.0621C42.6818 12.9098 41.3785 12.4289 39.8574 12.4289V14.4289C40.958 14.4289 41.5439 14.7577 41.8774 15.2246L43.5049 14.0621ZM39.8574 12.4289C38.4914 12.4289 37.2748 12.7467 36.4322 13.5893L37.8465 15.0035C38.1605 14.6895 38.7559 14.4289 39.8574 14.4289V12.4289ZM36.4322 13.5893C35.6584 14.3631 35.2701 15.5373 35.1056 16.8941L37.0911 17.1348C37.2351 15.9471 37.5408 15.3092 37.8465 15.0035L36.4322 13.5893ZM36.1487 16.0157L29.2668 15.6687L29.1661 17.6662L36.048 18.0132L36.1487 16.0157ZM30.202 16.8369C30.5874 14.5944 31.5804 12.975 33.1453 11.8762L31.996 10.2394C29.9368 11.6852 28.6937 13.8056 28.2309 16.4981L30.202 16.8369ZM33.1372 11.8819C34.7641 10.7634 37.0664 10.1494 40.1466 10.1494V8.1494C36.8268 8.1494 34.0785 8.80767 32.0041 10.2338L33.1372 11.8819ZM40.1466 10.1494C43.1889 10.1494 45.3827 10.8996 46.8755 12.2597L48.2225 10.7813C46.2454 8.97992 43.5042 8.1494 40.1466 8.1494V10.1494ZM46.8755 12.2597C48.3528 13.6057 49.1514 15.563 49.1514 18.2867H51.1514C51.1514 15.1502 50.215 12.5967 48.2225 10.7813L46.8755 12.2597ZM49.1514 18.2867V27.4819H51.1514V18.2867H49.1514ZM49.1514 27.4819C49.1514 28.2268 49.1914 28.8846 49.2791 29.4441C49.3651 29.9924 49.5061 30.5079 49.7458 30.9275L51.4823 29.9352C51.4136 29.815 51.3232 29.5691 51.255 29.1342C51.1885 28.7106 51.1514 28.1635 51.1514 27.4819H49.1514ZM49.7458 30.9275C50.2773 31.8575 51.2043 32.241 52.2333 32.241V30.241C51.7202 30.241 51.5677 30.0847 51.4823 29.9352L49.7458 30.9275ZM52.2333 32.241C52.7859 32.241 53.323 32.1985 53.8435 32.1117L53.5147 30.1389C53.1099 30.2064 52.6832 30.241 52.2333 30.241V32.241ZM52.6791 31.1253V34.653H54.6791V31.1253H52.6791ZM53.483 33.6724C53.0544 33.7581 52.6544 33.8681 52.287 34.0058L52.9893 35.8785C53.2388 35.7849 53.5327 35.7021 53.8752 35.6336L53.483 33.6724ZM52.3956 33.972C52.1346 34.0373 51.8513 34.0877 51.5446 34.1218L51.7654 36.1095C52.1527 36.0665 52.5248 36.0013 52.8807 35.9123L52.3956 33.972ZM51.531 34.1234C51.2276 34.1613 50.9044 34.1993 50.5614 34.2374L50.7823 36.2252C51.1333 36.1862 51.4656 36.1471 51.779 36.1079L51.531 34.1234ZM50.5614 34.2374C50.2607 34.2709 49.8942 34.2892 49.4574 34.2892V36.2892C49.9459 36.2892 50.3891 36.2689 50.7823 36.2252L50.5614 34.2374ZM49.4574 34.2892C47.9458 34.2892 47.0153 33.9196 46.4633 33.3676L45.0491 34.7818C46.1164 35.8491 47.6534 36.2892 49.4574 36.2892V34.2892ZM46.4804 33.385C45.9164 32.7928 45.505 31.8417 45.3635 30.3921L43.373 30.5863C43.54 32.2981 44.0539 33.7373 45.0321 34.7644L46.4804 33.385ZM44.3683 29.4892H44.2526V31.4892H44.3683V29.4892ZM43.3837 29.9941C41.6656 33.0096 39.1954 34.4627 35.8671 34.4627V36.4627C39.9412 36.4627 43.0613 34.6001 45.1215 30.9842L43.3837 29.9941ZM43.5417 22.2604L40.1296 22.3182L40.1635 24.3179L43.5756 24.2601L43.5417 22.2604ZM40.0966 22.3193C38.5427 22.397 37.295 22.5739 36.4694 22.9139L37.2309 24.7632C37.7162 24.5634 38.6661 24.3933 40.1965 24.3168L40.0966 22.3193ZM36.4494 22.9224C35.6419 23.2757 35.0005 23.8403 34.5469 24.5963L36.2619 25.6253C36.5022 25.2248 36.8247 24.9412 37.251 24.7547L36.4494 22.9224ZM34.5362 24.6147C34.1093 25.3618 33.9418 26.288 33.9418 27.3084H35.9418C35.9418 26.4783 36.0827 25.9394 36.2726 25.607L34.5362 24.6147ZM33.9418 27.3084C33.9418 28.6371 34.2401 29.8179 34.9988 30.685L36.504 29.368C36.1831 29.0013 35.9418 28.3701 35.9418 27.3084H33.9418ZM35.0443 30.7336C35.8354 31.5247 36.8543 31.894 38.0068 31.894V29.894C37.3088 29.894 36.824 29.6849 36.4585 29.3194L35.0443 30.7336ZM38.0068 31.894C39.2457 31.894 40.3872 31.5459 41.4039 30.8527L40.2772 29.2003C39.5975 29.6637 38.8498 29.894 38.0068 29.894V31.894ZM41.4039 30.8527C42.4036 30.1711 43.1728 29.2616 43.7083 28.146L41.9053 27.2805C41.5155 28.0926 40.9739 28.7253 40.2772 29.2003L41.4039 30.8527ZM43.7012 28.1605C44.2717 27.0195 44.5586 25.8062 44.5586 24.5325H42.5586C42.5586 25.495 42.3443 26.4021 41.9124 27.266L43.7012 28.1605ZM44.5586 24.5325V23.2602H42.5586V24.5325H44.5586ZM78.1534 31.9928L77.3469 31.4014L77.3406 31.4103L78.1534 31.9928ZM66.298 34.306L65.7909 35.168L66.298 34.306ZM63.2907 30.894L64.1987 30.4749L63.9306 29.894H63.2907V30.894ZM63.2329 30.894V29.894H62.2329V30.894H63.2329ZM63.1172 33.1494L62.1204 33.0697L63.1172 33.1494ZM62.8859 35V36H63.6402L63.8474 35.2747L62.8859 35ZM56.5245 35L55.5276 34.9213L55.4424 36H56.5245V35ZM56.698 0.243372V-0.756628H55.698V0.243372H56.698ZM63.2907 0.243372H64.2907V-0.756628H63.2907V0.243372ZM63.2907 9.9012L64.2904 9.92897L64.2907 9.91509V9.9012H63.2907ZM63.1751 14.0651L62.1755 14.0373L62.1469 15.0651H63.1751V14.0651ZM63.2907 14.0651V15.0651H63.929L64.1977 14.4862L63.2907 14.0651ZM71.3871 9.1494V8.14935L71.3772 8.14944L71.3871 9.1494ZM78.2691 12.5614L77.4478 13.1321L77.4544 13.1414L78.2691 12.5614ZM64.563 15.9735L63.7211 15.4338L63.7162 15.4416L63.7114 15.4494L64.563 15.9735ZM64.563 28.7542L63.7113 29.2783L63.7175 29.2882L64.563 28.7542ZM79.698 22.2193C79.698 26.3036 78.8713 29.3228 77.347 31.4014L78.9598 32.5841C80.8283 30.0362 81.698 26.5398 81.698 22.2193H79.698ZM77.3406 31.4103C75.8909 33.4331 73.8193 34.4627 70.9823 34.4627V36.4627C74.3911 36.4627 77.1003 35.1789 78.9662 32.5753L77.3406 31.4103ZM70.9823 34.4627C69.3142 34.4627 67.9351 34.1088 66.805 33.4441L65.7909 35.168C67.2826 36.0454 69.0263 36.4627 70.9823 36.4627V34.4627ZM66.805 33.4441C65.6855 32.7856 64.8152 31.8108 64.1987 30.4749L62.3828 31.313C63.1542 32.9844 64.2888 34.2843 65.7909 35.168L66.805 33.4441ZM63.2907 29.894H63.2329V31.894H63.2907V29.894ZM62.2329 30.894C62.2329 31.3942 62.1968 32.1151 62.1204 33.0697L64.1141 33.2291C64.1919 32.256 64.2329 31.4733 64.2329 30.894H62.2329ZM62.1204 33.0697C62.0412 34.0606 61.9687 34.5702 61.9244 34.7253L63.8474 35.2747C63.9573 34.8901 64.0391 34.1659 64.1141 33.2291L62.1204 33.0697ZM62.8859 34H56.5245V36H62.8859V34ZM57.5214 35.0787C57.64 33.5764 57.698 31.6195 57.698 29.2169H55.698C55.698 31.595 55.6403 33.4934 55.5276 34.9213L57.5214 35.0787ZM57.698 29.2169V0.243372H55.698V29.2169H57.698ZM56.698 1.24337H63.2907V-0.756628H56.698V1.24337ZM62.2907 0.243372V9.9012H64.2907V0.243372H62.2907ZM62.2911 9.87344L62.1755 14.0373L64.1747 14.0928L64.2904 9.92897L62.2911 9.87344ZM63.1751 15.0651H63.2907V13.0651H63.1751V15.0651ZM64.1977 14.4862C64.8774 13.0224 65.8032 11.9653 66.9615 11.262C68.1252 10.5555 69.588 10.1673 71.397 10.1493L71.3772 8.14944C69.2923 8.17009 67.4587 8.62042 65.9236 9.55244C64.3831 10.4877 63.2077 11.8692 62.3837 13.6439L64.1977 14.4862ZM71.3871 10.1494C74.0998 10.1494 76.0721 11.1523 77.4479 13.1321L79.0902 11.9908C77.3046 9.42116 74.6889 8.1494 71.3871 8.1494V10.1494ZM77.4544 13.1414C78.9071 15.1821 79.698 18.1666 79.698 22.2193H81.698C81.698 17.9443 80.8696 14.4902 79.0837 11.9815L77.4544 13.1414ZM74.816 22.2193C74.816 19.2677 74.39 16.9034 73.397 15.2785L71.6905 16.3214C72.3939 17.4726 72.816 19.3877 72.816 22.2193H74.816ZM73.397 15.2785C72.353 13.5702 70.7243 12.7181 68.6691 12.7181V14.7181C70.0837 14.7181 71.0381 15.2539 71.6905 16.3214L73.397 15.2785ZM68.6691 12.7181C66.5519 12.7181 64.8673 13.6458 63.7211 15.4338L65.4049 16.5132C66.1865 15.2939 67.2392 14.7181 68.6691 14.7181V12.7181ZM63.7114 15.4494C62.6475 17.1782 62.1751 19.551 62.1751 22.4506H64.1751C64.1751 19.7213 64.628 17.776 65.4147 16.4976L63.7114 15.4494ZM62.1751 22.4506C62.1751 25.2441 62.6507 27.5547 63.7114 29.2783L65.4147 28.2301C64.6248 26.9465 64.1751 25.0547 64.1751 22.4506H62.1751ZM63.7175 29.2882C64.8312 31.0516 66.5044 31.9518 68.6112 31.9518V29.9518C67.171 29.9518 66.1454 29.387 65.4085 28.2202L63.7175 29.2882ZM68.6112 31.9518C70.6881 31.9518 72.3207 31.0475 73.3738 29.2807C74.3782 27.5956 74.816 25.1968 74.816 22.2193H72.816C72.816 25.0635 72.3864 27.0309 71.6558 28.2567C70.974 29.4007 70.0042 29.9518 68.6112 29.9518V31.9518ZM86.0058 33.4964L85.2987 34.2035L85.3088 34.2136L85.3192 34.2234L86.0058 33.4964ZM86.5263 21.8723L87.1488 22.6549L87.151 22.6532L86.5263 21.8723ZM93.9865 19.7325L93.9984 20.7325L94.0076 20.7323L93.9865 19.7325ZM99.4805 19.6169L99.5015 20.6166L100.48 20.596V19.6169H99.4805ZM98.613 14.6434L99.4268 14.0621L99.4268 14.0621L98.613 14.6434ZM93.0612 14.2964L92.3541 13.5893L92.3541 13.5893L93.0612 14.2964ZM92.0203 17.0145L91.9699 18.0132L92.9008 18.0601L93.013 17.1348L92.0203 17.0145ZM85.1383 16.6675L84.1528 16.4981L83.9618 17.6094L85.088 17.6662L85.1383 16.6675ZM88.4925 11.0578L87.926 10.2337L87.9179 10.2394L88.4925 11.0578ZM103.471 11.5205L102.797 12.2597L102.797 12.2597L103.471 11.5205ZM106.536 30.4313L105.668 30.9275L105.668 30.9275L106.536 30.4313ZM109.601 31.1253H110.601V29.9448L109.437 30.1389L109.601 31.1253ZM109.601 34.653L109.797 35.6336L110.601 35.4728V34.653H109.601ZM108.56 34.9422L108.803 35.9123L108.858 35.8985L108.911 35.8785L108.56 34.9422ZM107.577 35.1157L107.466 34.1217L107.453 34.1234L107.577 35.1157ZM106.594 35.2313L106.483 34.2374L106.483 34.2374L106.594 35.2313ZM101.678 34.0747L100.954 34.7644L100.962 34.7732L100.971 34.7818L101.678 34.0747ZM100.29 30.4892L101.285 30.3921L101.197 29.4892H100.29V30.4892ZM100.174 30.4892V29.4892H99.5933L99.3056 29.9941L100.174 30.4892ZM99.4805 23.2602H100.48V22.2431L99.4636 22.2604L99.4805 23.2602ZM96.0684 23.3181L96.0515 22.3182L96.035 22.3185L96.0185 22.3193L96.0684 23.3181ZM92.7721 23.8386L92.3913 22.9139L92.3812 22.918L92.3712 22.9224L92.7721 23.8386ZM91.3263 25.1108L90.4688 24.5963L90.4633 24.6055L90.458 24.6147L91.3263 25.1108ZM91.6733 30.0265L90.9207 30.685L90.9426 30.7101L90.9662 30.7336L91.6733 30.0265ZM96.7624 30.0265L97.3258 30.8527L97.3258 30.8527L96.7624 30.0265ZM98.7287 27.7133L97.8343 27.266L97.8307 27.2733L97.8272 27.2805L98.7287 27.7133ZM91.7889 34.4627C89.4995 34.4627 87.8453 33.8582 86.6924 32.7694L85.3192 34.2234C86.9422 35.7563 89.1434 36.4627 91.7889 36.4627V34.4627ZM86.7129 32.7893C85.5987 31.6751 84.9817 30.0686 84.9817 27.8289H82.9817C82.9817 30.4471 83.7141 32.6189 85.2987 34.2035L86.7129 32.7893ZM84.9817 27.8289C84.9817 25.4412 85.7413 23.7745 87.1488 22.6549L85.9038 21.0897C83.9185 22.6689 82.9817 24.9733 82.9817 27.8289H84.9817ZM87.151 22.6532C88.6479 21.4556 90.8843 20.7695 93.9984 20.7325L93.9746 18.7326C90.6117 18.7726 87.8745 19.5131 85.9016 21.0914L87.151 22.6532ZM94.0076 20.7323L99.5015 20.6166L99.4594 18.6171L93.9655 18.7328L94.0076 20.7323ZM100.48 19.6169V18.3446H98.4805V19.6169H100.48ZM100.48 18.3446C100.48 16.604 100.183 15.121 99.4268 14.0621L97.7993 15.2246C98.1996 15.7851 98.4805 16.7695 98.4805 18.3446H100.48ZM99.4268 14.0621C98.6036 12.9098 97.3004 12.4289 95.7793 12.4289V14.4289C96.8799 14.4289 97.4658 14.7577 97.7993 15.2246L99.4268 14.0621ZM95.7793 12.4289C94.4133 12.4289 93.1967 12.7467 92.3541 13.5893L93.7683 15.0035C94.0824 14.6895 94.6778 14.4289 95.7793 14.4289V12.4289ZM92.3541 13.5893C91.5803 14.3631 91.192 15.5373 91.0275 16.8941L93.013 17.1348C93.157 15.9471 93.4626 15.3092 93.7683 15.0035L92.3541 13.5893ZM92.0706 16.0157L85.1887 15.6687L85.088 17.6662L91.9699 18.0132L92.0706 16.0157ZM86.1239 16.8369C86.5093 14.5944 87.5023 12.975 89.0672 11.8762L87.9179 10.2394C85.8587 11.6852 84.6155 13.8056 84.1528 16.4981L86.1239 16.8369ZM89.0591 11.8819C90.6859 10.7634 92.9882 10.1494 96.0684 10.1494V8.1494C92.7487 8.1494 90.0004 8.80767 87.926 10.2338L89.0591 11.8819ZM96.0684 10.1494C99.1108 10.1494 101.305 10.8996 102.797 12.2597L104.144 10.7813C102.167 8.97992 99.4261 8.1494 96.0684 8.1494V10.1494ZM102.797 12.2597C104.275 13.6057 105.073 15.563 105.073 18.2867H107.073C107.073 15.1502 106.137 12.5967 104.144 10.7813L102.797 12.2597ZM105.073 18.2867V27.4819H107.073V18.2867H105.073ZM105.073 27.4819C105.073 28.2268 105.113 28.8846 105.201 29.4441C105.287 29.9924 105.428 30.5079 105.668 30.9275L107.404 29.9352C107.335 29.815 107.245 29.5691 107.177 29.1342C107.11 28.7106 107.073 28.1635 107.073 27.4819H105.073ZM105.668 30.9275C106.199 31.8575 107.126 32.241 108.155 32.241V30.241C107.642 30.241 107.49 30.0847 107.404 29.9352L105.668 30.9275ZM108.155 32.241C108.708 32.241 109.245 32.1985 109.765 32.1117L109.437 30.1389C109.032 30.2064 108.605 30.241 108.155 30.241V32.241ZM108.601 31.1253V34.653H110.601V31.1253H108.601ZM109.405 33.6724C108.976 33.7581 108.576 33.8681 108.209 34.0058L108.911 35.8785C109.161 35.7849 109.455 35.7021 109.797 35.6336L109.405 33.6724ZM108.317 33.972C108.056 34.0373 107.773 34.0877 107.466 34.1218L107.687 36.1095C108.075 36.0665 108.447 36.0013 108.803 35.9123L108.317 33.972ZM107.453 34.1234C107.149 34.1613 106.826 34.1993 106.483 34.2374L106.704 36.2252C107.055 36.1862 107.387 36.1471 107.701 36.1079L107.453 34.1234ZM106.483 34.2374C106.183 34.2709 105.816 34.2892 105.379 34.2892V36.2892C105.868 36.2892 106.311 36.2689 106.704 36.2252L106.483 34.2374ZM105.379 34.2892C103.868 34.2892 102.937 33.9196 102.385 33.3676L100.971 34.7818C102.038 35.8491 103.575 36.2892 105.379 36.2892V34.2892ZM102.402 33.385C101.838 32.7928 101.427 31.8417 101.285 30.3921L99.2949 30.5863C99.4619 32.2981 99.9758 33.7373 100.954 34.7644L102.402 33.385ZM100.29 29.4892H100.174V31.4892H100.29V29.4892ZM99.3056 29.9941C97.5875 33.0096 95.1172 34.4627 91.7889 34.4627V36.4627C95.863 36.4627 98.9831 34.6001 101.043 30.9842L99.3056 29.9941ZM99.4636 22.2604L96.0515 22.3182L96.0854 24.3179L99.4974 24.2601L99.4636 22.2604ZM96.0185 22.3193C94.4646 22.397 93.2169 22.5739 92.3913 22.9139L93.1528 24.7632C93.6381 24.5634 94.588 24.3933 96.1184 24.3168L96.0185 22.3193ZM92.3712 22.9224C91.5638 23.2757 90.9224 23.8403 90.4688 24.5963L92.1838 25.6253C92.4241 25.2248 92.7466 24.9412 93.1729 24.7547L92.3712 22.9224ZM90.458 24.6147C90.0311 25.3618 89.8636 26.288 89.8636 27.3084H91.8636C91.8636 26.4783 92.0046 25.9394 92.1945 25.607L90.458 24.6147ZM89.8636 27.3084C89.8636 28.6371 90.162 29.8179 90.9207 30.685L92.4258 29.368C92.105 29.0013 91.8636 28.3701 91.8636 27.3084H89.8636ZM90.9662 30.7336C91.7573 31.5247 92.7761 31.894 93.9287 31.894V29.894C93.2306 29.894 92.7459 29.6849 92.3804 29.3194L90.9662 30.7336ZM93.9287 31.894C95.1676 31.894 96.3091 31.5459 97.3258 30.8527L96.1991 29.2003C95.5194 29.6637 94.7717 29.894 93.9287 29.894V31.894ZM97.3258 30.8527C98.3255 30.1711 99.0947 29.2616 99.6302 28.146L97.8272 27.2805C97.4374 28.0926 96.8957 28.7253 96.1991 29.2003L97.3258 30.8527ZM99.6231 28.1605C100.194 27.0195 100.48 25.8062 100.48 24.5325H98.4805C98.4805 25.495 98.2662 26.4021 97.8343 27.266L99.6231 28.1605ZM100.48 24.5325V23.2602H98.4805V24.5325H100.48ZM112.62 35H111.62V36H112.62V35ZM112.446 9.61205V8.61205H111.392L111.448 9.66461L112.446 9.61205ZM118.692 9.61205L119.682 9.47063L119.559 8.61205H118.692V9.61205ZM118.866 12.2145L117.867 12.267L117.868 12.2812L117.869 12.2953L118.866 12.2145ZM119.039 15.0482H118.039V16.0482H119.039V15.0482ZM119.097 15.0482V16.0482H119.793L120.035 15.3948L119.097 15.0482ZM122.567 9.66988L122.12 8.77545L122.109 8.78065L122.099 8.78609L122.567 9.66988ZM127.193 9.49638H128.193V8.85655L127.612 8.58842L127.193 9.49638ZM127.193 14.9904L126.984 15.9682L128.193 16.2273V14.9904H127.193ZM120.543 16.6675L119.718 16.1019L119.714 16.1072L120.543 16.6675ZM119.213 35V36H120.213V35H119.213ZM113.62 35V15.5687H111.62V35H113.62ZM113.62 15.5687C113.62 14.1729 113.6 13.0013 113.561 12.0572L111.563 12.1404C111.601 13.0469 111.62 14.1885 111.62 15.5687H113.62ZM113.561 12.0572C113.522 11.1291 113.484 10.2965 113.445 9.55949L111.448 9.66461C111.486 10.3927 111.524 11.2179 111.563 12.1404L113.561 12.0572ZM112.446 10.612H118.692V8.61205H112.446V10.612ZM117.702 9.75347C117.733 9.96726 117.789 10.7768 117.867 12.267L119.864 12.1619C119.788 10.722 119.729 9.79659 119.682 9.47063L117.702 9.75347ZM117.869 12.2953C117.985 13.7295 118.039 14.6331 118.039 15.0482H120.039C120.039 14.538 119.977 13.5525 119.862 12.1336L117.869 12.2953ZM119.039 16.0482H119.097V14.0482H119.039V16.0482ZM120.035 15.3948C120.686 13.632 121.23 12.4781 121.657 11.8538L120.007 10.7245C119.431 11.5653 118.818 12.9174 118.159 14.7015L120.035 15.3948ZM121.657 11.8538C122.085 11.2289 122.548 10.8113 123.035 10.5537L122.099 8.78609C121.275 9.22248 120.581 9.88436 120.007 10.7245L121.657 11.8538ZM123.014 10.5643C123.53 10.3063 124.233 10.1494 125.169 10.1494V8.1494C124.024 8.1494 122.992 8.33948 122.12 8.77545L123.014 10.5643ZM125.169 10.1494C125.943 10.1494 126.456 10.2574 126.774 10.4043L127.612 8.58842C126.928 8.27272 126.092 8.1494 125.169 8.1494V10.1494ZM126.193 9.49638V14.9904H128.193V9.49638H126.193ZM127.403 14.0126C126.281 13.7722 125.282 13.6434 124.417 13.6434V15.6434C125.095 15.6434 125.946 15.7458 126.984 15.9682L127.403 14.0126ZM124.417 13.6434C122.435 13.6434 120.833 14.4763 119.718 16.1019L121.367 17.233C122.103 16.1598 123.084 15.6434 124.417 15.6434V13.6434ZM119.714 16.1072C118.664 17.6599 118.213 19.8632 118.213 22.5663H120.213C120.213 20.026 120.648 18.2967 121.371 17.2278L119.714 16.1072ZM118.213 22.5663V35H120.213V22.5663H118.213ZM119.213 34H112.62V36H119.213V34ZM131.276 35H130.276V36H131.276V35ZM131.276 0.243372V-0.756628H130.276V0.243372H131.276ZM137.869 0.243372H138.869V-0.756628H137.869V0.243372ZM137.869 35V36H138.869V35H137.869ZM132.276 35V0.243372H130.276V35H132.276ZM131.276 1.24337H137.869V-0.756628H131.276V1.24337ZM136.869 0.243372V35H138.869V0.243372H136.869ZM137.869 34H131.276V36H137.869V34ZM144.646 33.4964L143.939 34.2035L143.949 34.2136L143.96 34.2234L144.646 33.4964ZM145.167 21.8723L145.789 22.6549L145.792 22.6532L145.167 21.8723ZM152.627 19.7325L152.639 20.7325L152.648 20.7323L152.627 19.7325ZM158.121 19.6169L158.142 20.6166L159.121 20.596V19.6169H158.121ZM157.254 14.6434L158.067 14.0621L158.067 14.0621L157.254 14.6434ZM151.702 14.2964L150.995 13.5893L150.995 13.5893L151.702 14.2964ZM150.661 17.0145L150.611 18.0132L151.541 18.0601L151.654 17.1348L150.661 17.0145ZM143.779 16.6675L142.793 16.4981L142.602 17.6094L143.729 17.6662L143.779 16.6675ZM147.133 11.0578L146.567 10.2337L146.559 10.2394L147.133 11.0578ZM162.111 11.5205L161.438 12.2597L161.438 12.2597L162.111 11.5205ZM165.177 30.4313L164.308 30.9275L164.308 30.9275L165.177 30.4313ZM168.242 31.1253H169.242V29.9448L168.077 30.1389L168.242 31.1253ZM168.242 34.653L168.438 35.6336L169.242 35.4728V34.653H168.242ZM167.201 34.9422L167.443 35.9123L167.498 35.8985L167.552 35.8785L167.201 34.9422ZM166.218 35.1157L166.107 34.1217L166.093 34.1234L166.218 35.1157ZM165.234 35.2313L165.124 34.2374L165.124 34.2374L165.234 35.2313ZM160.319 34.0747L159.595 34.7644L159.603 34.7732L159.612 34.7818L160.319 34.0747ZM158.931 30.4892L159.926 30.3921L159.838 29.4892H158.931V30.4892ZM158.815 30.4892V29.4892H158.234L157.946 29.9941L158.815 30.4892ZM158.121 23.2602H159.121V22.2431L158.104 22.2604L158.121 23.2602ZM154.709 23.3181L154.692 22.3182L154.676 22.3185L154.659 22.3193L154.709 23.3181ZM151.413 23.8386L151.032 22.9139L151.022 22.918L151.012 22.9224L151.413 23.8386ZM149.967 25.1108L149.109 24.5963L149.104 24.6055L149.099 24.6147L149.967 25.1108ZM150.314 30.0265L149.561 30.685L149.583 30.7101L149.607 30.7336L150.314 30.0265ZM155.403 30.0265L155.966 30.8527L155.966 30.8527L155.403 30.0265ZM157.369 27.7133L156.475 27.266L156.471 27.2733L156.468 27.2805L157.369 27.7133ZM150.43 34.4627C148.14 34.4627 146.486 33.8582 145.333 32.7694L143.96 34.2234C145.583 35.7563 147.784 36.4627 150.43 36.4627V34.4627ZM145.354 32.7893C144.239 31.6751 143.622 30.0686 143.622 27.8289H141.622C141.622 30.4471 142.355 32.6189 143.939 34.2035L145.354 32.7893ZM143.622 27.8289C143.622 25.4412 144.382 23.7745 145.789 22.6549L144.544 21.0897C142.559 22.6689 141.622 24.9733 141.622 27.8289H143.622ZM145.792 22.6532C147.289 21.4556 149.525 20.7695 152.639 20.7325L152.615 18.7326C149.252 18.7726 146.515 19.5131 144.542 21.0914L145.792 22.6532ZM152.648 20.7323L158.142 20.6166L158.1 18.6171L152.606 18.7328L152.648 20.7323ZM159.121 19.6169V18.3446H157.121V19.6169H159.121ZM159.121 18.3446C159.121 16.604 158.824 15.121 158.067 14.0621L156.44 15.2246C156.84 15.7851 157.121 16.7695 157.121 18.3446H159.121ZM158.067 14.0621C157.244 12.9098 155.941 12.4289 154.42 12.4289V14.4289C155.52 14.4289 156.106 14.7577 156.44 15.2246L158.067 14.0621ZM154.42 12.4289C153.054 12.4289 151.837 12.7467 150.995 13.5893L152.409 15.0035C152.723 14.6895 153.318 14.4289 154.42 14.4289V12.4289ZM150.995 13.5893C150.221 14.3631 149.833 15.5373 149.668 16.8941L151.654 17.1348C151.798 15.9471 152.103 15.3092 152.409 15.0035L150.995 13.5893ZM150.711 16.0157L143.829 15.6687L143.729 17.6662L150.611 18.0132L150.711 16.0157ZM144.765 16.8369C145.15 14.5944 146.143 12.975 147.708 11.8762L146.559 10.2394C144.499 11.6852 143.256 13.8056 142.793 16.4981L144.765 16.8369ZM147.7 11.8819C149.327 10.7634 151.629 10.1494 154.709 10.1494V8.1494C151.389 8.1494 148.641 8.80767 146.567 10.2338L147.7 11.8819ZM154.709 10.1494C157.751 10.1494 159.945 10.8996 161.438 12.2597L162.785 10.7813C160.808 8.97992 158.067 8.1494 154.709 8.1494V10.1494ZM161.438 12.2597C162.915 13.6057 163.714 15.563 163.714 18.2867H165.714C165.714 15.1502 164.778 12.5967 162.785 10.7813L161.438 12.2597ZM163.714 18.2867V27.4819H165.714V18.2867H163.714ZM163.714 27.4819C163.714 28.2268 163.754 28.8846 163.842 29.4441C163.928 29.9924 164.069 30.5079 164.308 30.9275L166.045 29.9352C165.976 29.815 165.886 29.5691 165.817 29.1342C165.751 28.7106 165.714 28.1635 165.714 27.4819H163.714ZM164.308 30.9275C164.84 31.8575 165.767 32.241 166.796 32.241V30.241C166.283 30.241 166.13 30.0847 166.045 29.9352L164.308 30.9275ZM166.796 32.241C167.348 32.241 167.885 32.1985 168.406 32.1117L168.077 30.1389C167.672 30.2064 167.246 30.241 166.796 30.241V32.241ZM167.242 31.1253V34.653H169.242V31.1253H167.242ZM168.045 33.6724C167.617 33.7581 167.217 33.8681 166.85 34.0058L167.552 35.8785C167.801 35.7849 168.095 35.7021 168.438 35.6336L168.045 33.6724ZM166.958 33.972C166.697 34.0373 166.414 34.0877 166.107 34.1218L166.328 36.1095C166.715 36.0665 167.087 36.0013 167.443 35.9123L166.958 33.972ZM166.093 34.1234C165.79 34.1613 165.467 34.1993 165.124 34.2374L165.345 36.2252C165.696 36.1862 166.028 36.1471 166.342 36.1079L166.093 34.1234ZM165.124 34.2374C164.823 34.2709 164.457 34.2892 164.02 34.2892V36.2892C164.508 36.2892 164.952 36.2689 165.345 36.2252L165.124 34.2374ZM164.02 34.2892C162.508 34.2892 161.578 33.9196 161.026 33.3676L159.612 34.7818C160.679 35.8491 162.216 36.2892 164.02 36.2892V34.2892ZM161.043 33.385C160.479 32.7928 160.067 31.8417 159.926 30.3921L157.935 30.5863C158.102 32.2981 158.616 33.7373 159.595 34.7644L161.043 33.385ZM158.931 29.4892H158.815V31.4892H158.931V29.4892ZM157.946 29.9941C156.228 33.0096 153.758 34.4627 150.43 34.4627V36.4627C154.504 36.4627 157.624 34.6001 159.684 30.9842L157.946 29.9941ZM158.104 22.2604L154.692 22.3182L154.726 24.3179L158.138 24.2601L158.104 22.2604ZM154.659 22.3193C153.105 22.397 151.857 22.5739 151.032 22.9139L151.793 24.7632C152.279 24.5634 153.229 24.3933 154.759 24.3168L154.659 22.3193ZM151.012 22.9224C150.204 23.2757 149.563 23.8403 149.109 24.5963L150.824 25.6253C151.065 25.2248 151.387 24.9412 151.814 24.7547L151.012 22.9224ZM149.099 24.6147C148.672 25.3618 148.504 26.288 148.504 27.3084H150.504C150.504 26.4783 150.645 25.9394 150.835 25.607L149.099 24.6147ZM148.504 27.3084C148.504 28.6371 148.803 29.8179 149.561 30.685L151.066 29.368C150.746 29.0013 150.504 28.3701 150.504 27.3084H148.504ZM149.607 30.7336C150.398 31.5247 151.417 31.894 152.569 31.894V29.894C151.871 29.894 151.387 29.6849 151.021 29.3194L149.607 30.7336ZM152.569 31.894C153.808 31.894 154.95 31.5459 155.966 30.8527L154.84 29.2003C154.16 29.6637 153.412 29.894 152.569 29.894V31.894ZM155.966 30.8527C156.966 30.1711 157.735 29.2616 158.271 28.146L156.468 27.2805C156.078 28.0926 155.536 28.7253 154.84 29.2003L155.966 30.8527ZM158.264 28.1605C158.834 27.0195 159.121 25.8062 159.121 24.5325H157.121C157.121 25.495 156.907 26.4021 156.475 27.266L158.264 28.1605ZM159.121 24.5325V23.2602H157.121V24.5325H159.121ZM193.815 35L192.962 35.5226L193.255 36H193.815V35ZM186.123 22.4506L186.976 21.928L186.683 21.4506H186.123V22.4506ZM178.027 22.4506V21.4506H177.027V22.4506H178.027ZM178.027 35V36H179.027V35H178.027ZM171.145 35H170.145V36H171.145V35ZM171.145 1.97831V0.978313H170.145V1.97831H171.145ZM196.706 4.52289L196.082 5.30379L196.088 5.30921L196.706 4.52289ZM197.979 17.8241L198.763 18.4444L198.77 18.4355L197.979 17.8241ZM192.658 21.1205L192.423 20.1484L191.058 20.4781L191.816 21.6605L192.658 21.1205ZM201.564 35V36H203.394L202.406 34.46L201.564 35ZM178.027 7.35662V6.35662H177.027V7.35662H178.027ZM178.027 17.0723H177.027V18.0723H178.027V17.0723ZM191.501 15.8L192.147 16.5634L192.156 16.5563L192.164 16.549L191.501 15.8ZM194.667 34.4774L186.976 21.928L185.271 22.9732L192.962 35.5226L194.667 34.4774ZM186.123 21.4506H178.027V23.4506H186.123V21.4506ZM177.027 22.4506V35H179.027V22.4506H177.027ZM178.027 34H171.145V36H178.027V34ZM172.145 35V1.97831H170.145V35H172.145ZM171.145 2.97831H187.627V0.978313H171.145V2.97831ZM187.627 2.97831C191.431 2.97831 194.203 3.80062 196.082 5.30376L197.331 3.74202C194.969 1.85239 191.688 0.978313 187.627 0.978313V2.97831ZM196.088 5.30921C197.968 6.7858 198.945 8.9026 198.945 11.8096H200.945C200.945 8.39379 199.763 5.65275 197.324 3.73657L196.088 5.30921ZM198.945 11.8096C198.945 13.9202 198.352 15.7056 197.187 17.2126L198.77 18.4355C200.227 16.5499 200.945 14.3256 200.945 11.8096H198.945ZM197.194 17.2039C196.035 18.6704 194.463 19.6562 192.423 20.1484L192.893 22.0926C195.326 21.5053 197.301 20.2935 198.763 18.4443L197.194 17.2039ZM191.816 21.6605L200.722 35.54L202.406 34.46L193.5 20.5804L191.816 21.6605ZM201.564 34H193.815V36H201.564V34ZM194.005 12.0988C194.005 10.2855 193.406 8.77351 192.084 7.75121C190.812 6.76659 189.019 6.35662 186.875 6.35662V8.35662C188.817 8.35662 190.09 8.73702 190.861 9.33312C191.583 9.89154 192.005 10.7507 192.005 12.0988H194.005ZM186.875 6.35662H178.027V8.35662H186.875V6.35662ZM177.027 7.35662V17.0723H179.027V7.35662H177.027ZM178.027 18.0723H187.106V16.0723H178.027V18.0723ZM187.106 18.0723C189.163 18.0723 190.896 17.6219 192.147 16.5634L190.855 15.0366C190.102 15.6745 188.905 16.0723 187.106 16.0723V18.0723ZM192.164 16.549C193.42 15.4377 194.005 13.9091 194.005 12.0988H192.005C192.005 13.45 191.587 14.3888 190.839 15.051L192.164 16.549ZM204.224 35H203.224V36H204.224V35ZM204.224 30.4313L203.312 30.0217L203.224 30.2171V30.4313H204.224ZM207.867 24.9373L208.614 25.6028L208.621 25.5947L207.867 24.9373ZM213.882 19.2699L214.511 20.0471L214.514 20.0444L213.882 19.2699ZM218.74 14.6434L219.53 15.2555L219.535 15.2495L219.54 15.2434L218.74 14.6434ZM212.552 7.87711L211.845 7.17L211.836 7.17906L211.827 7.18836L212.552 7.87711ZM211.106 11.2892L211.045 12.2873L211.956 12.3432L212.094 11.4412L211.106 11.2892ZM204.513 10.8843L203.521 10.7588L203.387 11.8171L204.452 11.8825L204.513 10.8843ZM207.925 3.88675L207.282 3.121L207.274 3.12749L207.925 3.88675ZM223.887 3.94458L223.227 4.6962L223.235 4.70333L223.243 4.71028L223.887 3.94458ZM225.853 14.9904L224.953 14.5541L224.947 14.5659L225.853 14.9904ZM223.54 18.4602L224.273 19.1396L224.28 19.133L224.286 19.1263L223.54 18.4602ZM220.359 21.4096L220.967 22.2032L220.976 22.197L220.984 22.1905L220.359 21.4096ZM216.947 24.0699L216.325 23.2864L216.319 23.2917L216.312 23.2972L216.947 24.0699ZM211.973 29.5639L211.065 29.1448L210.41 30.5639H211.973V29.5639ZM227.299 29.5639H228.299V28.5639H227.299V29.5639ZM227.299 35V36H228.299V35H227.299ZM205.224 35V30.4313H203.224V35H205.224ZM205.136 30.8409C205.937 29.0576 207.091 27.3109 208.614 25.6027L207.121 24.272C205.482 26.1108 204.207 28.0268 203.312 30.0217L205.136 30.8409ZM208.621 25.5947C210.154 23.8368 212.114 21.9872 214.511 20.0471L213.253 18.4926C210.791 20.4851 208.742 22.4138 207.114 24.28L208.621 25.5947ZM214.514 20.0444C216.841 18.1442 218.533 16.5438 219.53 15.2555L217.949 14.0312C217.096 15.1333 215.549 16.6172 213.249 18.4953L214.514 20.0444ZM219.54 15.2434C220.552 13.8938 221.128 12.4929 221.128 11.0578H219.128C219.128 11.936 218.778 12.9254 217.94 14.0434L219.54 15.2434ZM221.128 11.0578C221.128 9.4579 220.727 8.07428 219.75 7.09771C218.774 6.12114 217.39 5.72048 215.79 5.72048V7.72048C217.082 7.72048 217.867 8.04271 218.336 8.51193C218.805 8.98114 219.128 9.76619 219.128 11.0578H221.128ZM215.79 5.72048C214.213 5.72048 212.851 6.16375 211.845 7.17L213.259 8.58421C213.795 8.0483 214.592 7.72048 215.79 7.72048V5.72048ZM211.827 7.18836C210.905 8.15844 210.367 9.51517 210.118 11.1371L212.094 11.4412C212.307 10.0559 212.733 9.13795 213.277 8.56586L211.827 7.18836ZM211.167 10.291L204.574 9.88622L204.452 11.8825L211.045 12.2873L211.167 10.291ZM205.505 11.0099C205.867 8.1502 206.917 6.06817 208.576 4.646L207.274 3.12749C205.155 4.94387 203.93 7.52691 203.521 10.7588L205.505 11.0099ZM208.568 4.65245C210.268 3.22519 212.618 2.45783 215.732 2.45783V0.45783C212.292 0.45783 209.438 1.30975 207.282 3.12104L208.568 4.65245ZM215.732 2.45783C219.136 2.45783 221.583 3.25356 223.227 4.6962L224.546 3.19295C222.412 1.31993 219.423 0.45783 215.732 0.45783V2.45783ZM223.243 4.71028C224.907 6.10745 225.778 8.08012 225.778 10.7687H227.778C227.778 7.59699 226.722 5.02026 224.53 3.17887L223.243 4.71028ZM225.778 10.7687C225.778 12.1736 225.498 13.4298 224.953 14.5541L226.753 15.4266C227.441 14.0064 227.778 12.448 227.778 10.7687H225.778ZM224.947 14.5659C224.413 15.7065 223.697 16.7826 222.794 17.7942L224.286 19.1263C225.31 17.9789 226.136 16.7417 226.758 15.4148L224.947 14.5659ZM222.806 17.7808C221.877 18.7837 220.854 19.7332 219.734 20.6288L220.984 22.1905C222.177 21.2355 223.274 20.2187 224.273 19.1396L222.806 17.7808ZM219.75 20.616C218.59 21.506 217.448 22.3962 216.325 23.2864L217.568 24.8534C218.682 23.9701 219.815 23.0867 220.967 22.2032L219.75 20.616ZM216.312 23.2972C215.21 24.2023 214.203 25.1108 213.29 26.023L214.705 27.4372C215.566 26.5759 216.524 25.711 217.582 24.8426L216.312 23.2972ZM213.29 26.023C212.331 26.982 211.584 28.0218 211.065 29.1448L212.881 29.9829C213.288 29.1011 213.89 28.2518 214.705 27.4372L213.29 26.023ZM211.973 30.5639H227.299V28.5639H211.973V30.5639ZM226.299 29.5639V35H228.299V29.5639H226.299ZM227.299 34H204.224V36H227.299V34ZM251.252 28.2916V27.2916H250.252V28.2916H251.252ZM251.252 35V36H252.252V35H251.252ZM244.949 35H243.949V36H244.949V35ZM244.949 28.2916H245.949V27.2916H244.949V28.2916ZM229.971 28.2916H228.971V29.2916H229.971V28.2916ZM229.971 23.3181L229.133 22.7713L228.971 23.0204V23.3181H229.971ZM243.908 1.97831V0.978313H243.367L243.071 1.43149L243.908 1.97831ZM251.252 1.97831H252.252V0.978313H251.252V1.97831ZM251.252 23.3759H250.252V24.3759H251.252V23.3759ZM255.648 23.3759H256.648V22.3759H255.648V23.3759ZM255.648 28.2916V29.2916H256.648V28.2916H255.648ZM245.007 9.84337L244.01 9.76668L244.008 9.78502L244.008 9.80341L245.007 9.84337ZM245.18 7.93494L246.17 8.07636L244.278 7.50348L245.18 7.93494ZM242.983 11.7518L243.817 12.3036L243.823 12.2937L243.829 12.2836L242.983 11.7518ZM235.291 23.3759L234.457 22.8241L233.43 24.3759H235.291V23.3759ZM244.949 23.3759V24.3759H245.949V23.3759H244.949ZM250.252 28.2916V35H252.252V28.2916H250.252ZM251.252 34H244.949V36H251.252V34ZM245.949 35V28.2916H243.949V35H245.949ZM244.949 27.2916H229.971V29.2916H244.949V27.2916ZM230.971 28.2916V23.3181H228.971V28.2916H230.971ZM230.808 23.8649L244.745 2.52513L243.071 1.43149L229.133 22.7713L230.808 23.8649ZM243.908 2.97831H251.252V0.978313H243.908V2.97831ZM250.252 1.97831V23.3759H252.252V1.97831H250.252ZM251.252 24.3759H255.648V22.3759H251.252V24.3759ZM254.648 23.3759V28.2916H256.648V23.3759H254.648ZM255.648 27.2916H251.252V29.2916H255.648V27.2916ZM245.949 12.5614C245.949 11.7282 245.968 10.8356 246.006 9.88334L244.008 9.80341C243.968 10.7788 243.949 11.6983 243.949 12.5614H245.949ZM246.004 9.92007C246.082 8.90735 246.137 8.30716 246.17 8.07636L244.19 7.79352C244.146 8.10248 244.086 8.77458 244.01 9.76668L246.004 9.92007ZM244.278 7.50348C243.88 8.33666 243.172 9.5695 242.136 11.22L243.829 12.2836C244.875 10.6184 245.633 9.30671 246.082 8.3664L244.278 7.50348ZM242.149 11.2L234.457 22.8241L236.125 23.9277L243.817 12.3036L242.149 11.2ZM235.291 24.3759H244.949V22.3759H235.291V24.3759ZM245.949 23.3759V12.5614H243.949V23.3759H245.949Z" fill="#580808" fill-opacity="0.84"/>
</svg>
